<svg version="1.1" id="Layer_1" xmlns="http://www.w3.org/2000/svg" xmlns:xlink="http://www.w3.org/1999/xlink" x="0px" y="0px"
	 width="100%" viewBox="0 0 1024 1024" enable-background="new 0 0 1024 1024" xml:space="preserve">
<path fill="#ffffff" opacity="1.000000" stroke="none" 
	d="
M439.119537,554.003174 
	C434.609985,561.636169 430.546234,569.118042 425.921417,576.235352 
	C414.237030,594.216797 392.640472,602.660889 371.441376,597.855957 
	C350.951752,593.211731 334.804657,575.681519 331.581055,555.150269 
	C329.692749,543.123718 331.557800,531.916809 337.643860,521.481506 
	C361.481201,480.609467 385.387909,439.777924 409.309021,398.954834 
	C423.711487,374.375946 437.965881,349.706482 452.684387,325.317596 
	C473.777985,290.364990 524.889587,289.799805 546.871033,324.186768 
	C552.789429,333.445312 558.084717,343.101715 563.690247,352.561188 
	C564.642639,354.168335 565.561890,355.602478 564.360474,357.599640 
	C558.092529,368.019073 551.920471,378.496094 545.686646,388.936188 
	C545.452515,389.328278 544.925903,389.545746 544.563171,389.823486 
	C542.818298,389.411530 542.244446,387.950562 541.500061,386.675629 
	C533.772461,373.439148 525.942200,360.260895 518.363342,346.939728 
	C510.098175,332.412384 492.368622,331.127380 483.281250,345.102264 
	C474.661987,358.357269 466.984619,372.228119 458.984070,385.881470 
	C429.588043,436.047028 400.240082,486.240784 370.842255,536.405334 
	C367.736298,541.705322 366.188538,547.066040 369.073242,552.966064 
	C369.947876,554.754944 370.852509,556.486084 373.203278,557.706848 
	C374.867432,555.022827 376.474091,552.558289 377.956940,550.021362 
	C415.205444,486.297424 452.439453,422.565002 489.687622,358.840851 
	C490.527100,357.404663 491.398895,355.966217 492.428925,354.666138 
	C497.422913,348.362854 504.118561,348.604767 508.315094,355.521423 
	C517.561951,370.761719 526.563843,386.150482 535.741699,401.433075 
	C537.127258,403.740265 536.993530,405.633209 535.601013,407.885406 
	C532.472473,412.945099 529.522339,417.284058 523.095886,419.659668 
	C510.701202,424.241516 504.863373,436.107330 506.266083,449.984619 
	C507.370392,460.909393 516.449158,470.668915 528.011536,473.360535 
	C539.223694,475.970581 551.380310,470.736267 558.091064,460.121613 
	C561.381592,454.916870 564.388306,449.519073 567.272461,444.075623 
	C569.273010,440.299927 571.854736,438.461243 576.370544,438.644348 
	C585.524353,439.015533 594.701782,438.761444 603.863708,438.992615 
	C607.430969,439.082672 609.673035,437.893158 611.523621,434.731537 
	C632.060730,399.644562 652.743347,364.642792 673.333130,329.586548 
	C676.967224,323.399078 674.500122,319.357208 667.171570,319.306335 
	C657.838806,319.241516 648.500610,319.451904 639.173523,319.207550 
	C629.309998,318.949158 622.321167,323.232635 617.441223,331.609802 
	C604.862488,353.203491 592.201782,374.749481 579.580078,396.318176 
	C568.557617,415.153931 557.570618,434.010468 546.511108,452.824463 
	C542.741455,459.237213 535.760803,461.932770 528.894592,459.838135 
	C522.354736,457.843048 518.451965,452.120880 518.727295,444.931152 
	C518.992188,438.012787 523.698364,432.441315 531.040955,431.326996 
	C534.785461,430.758698 536.744019,429.003235 538.566772,425.871155 
	C558.680298,391.309174 579.095886,356.922211 599.092896,322.293365 
	C608.460999,306.070587 622.289734,298.644348 640.696716,298.843811 
	C649.528992,298.939514 658.373413,299.172211 667.194031,298.846954 
	C691.304260,297.958008 701.814758,321.639069 690.793274,339.906006 
	C682.358765,353.885315 674.239075,368.054718 665.989075,382.145233 
	C628.445984,446.266571 590.877747,510.373169 553.377258,574.519470 
	C534.031799,607.610718 492.079895,607.740967 472.692963,574.692444 
	C459.121094,551.556763 445.570740,528.408508 431.998627,505.272980 
	C431.504303,504.430328 430.881653,503.662964 430.314545,502.854431 
	C423.644440,507.950897 422.390228,513.376892 426.311066,520.139282 
	C430.573151,527.490234 434.702301,534.932251 439.306366,542.065430 
	C441.968781,546.190369 442.838013,549.803833 439.119537,554.003174 
M511.689484,578.810303 
	C522.097473,579.611816 529.321594,574.347717 534.276367,565.987793 
	C554.399231,532.035706 574.287231,497.944336 594.228516,463.884796 
	C594.948181,462.655609 596.051208,461.444824 595.507629,459.629852 
	C592.119934,458.628174 588.615601,459.351288 585.172546,459.113770 
	C582.324707,458.917267 580.667603,460.228577 579.242859,462.686310 
	C560.787659,494.521698 542.251160,526.309937 523.700562,558.089905 
	C517.747925,568.287659 507.873810,568.182922 501.900208,557.958496 
	C487.536072,533.373047 473.158020,508.795654 458.756439,484.232117 
	C455.772919,479.143372 452.663116,474.128693 449.586517,469.038513 
	C442.999908,476.043610 440.355377,482.960571 447.395172,490.664459 
	C447.614471,490.904449 447.731415,491.237274 447.899506,491.524841 
	C462.099945,515.821472 476.332275,540.099670 490.483398,564.425049 
	C495.097076,572.355896 501.319885,577.830994 511.689484,578.810303 
M501.149536,490.929230 
	C500.114288,488.220093 501.883453,486.049469 502.775696,483.845734 
	C504.698212,479.097137 501.901276,476.521912 498.653625,474.369446 
	C496.403320,472.877991 493.805542,474.434845 491.384460,474.763885 
	C489.585297,475.008423 487.876801,475.713867 486.194122,474.256622 
	C481.022675,469.777954 481.037781,462.837219 486.299164,458.613159 
	C491.794159,454.201538 491.191437,448.577271 484.625763,446.075836 
	C479.756134,444.220520 477.952820,441.727814 479.191803,436.289642 
	C480.242767,431.676971 481.629669,429.489319 486.876343,429.483856 
	C494.660034,429.475769 497.625153,423.480042 493.052002,417.440826 
	C489.886017,413.259827 490.386780,410.566467 493.988434,406.804382 
	C497.867279,402.752716 501.061920,402.073486 505.291962,405.642181 
	C506.157898,406.372772 507.307800,407.068359 508.389191,407.180847 
	C510.821838,407.434021 514.132385,406.474823 512.886719,403.855927 
	C509.369843,396.461945 504.883392,389.529144 500.459656,381.861023 
	C499.202454,383.526489 498.533203,384.246979 498.051025,385.076263 
	C486.414551,405.089325 474.849121,425.143951 463.120483,445.102722 
	C461.449463,447.946259 462.280884,449.961487 463.717773,452.413635 
	C477.189972,475.404938 490.566315,498.452362 504.002777,521.464661 
	C506.739136,526.151062 509.611359,530.758240 513.039185,536.423706 
	C521.994080,521.064758 530.358765,506.718201 539.323914,491.341705 
	C533.100769,491.466217 528.285706,491.224213 523.621826,490.161926 
	C520.675537,489.490936 518.699158,490.434601 517.208191,492.671417 
	C513.636353,498.029999 513.055969,498.566711 505.778381,494.303925 
	C504.348145,493.466187 503.020050,492.454071 501.149536,490.929230 
z"/>
<path fill="#ffffff" opacity="1.000000" stroke="none" 
	d="
M654.200928,462.854553 
	C665.669006,482.417419 677.137817,501.560974 688.182861,520.946045 
	C698.150940,538.440857 698.104370,556.355103 687.851807,573.623901 
	C677.355408,591.303467 661.130310,599.999573 640.703064,599.115845 
	C622.586548,598.332092 608.357666,589.710388 598.787048,574.046204 
	C594.186401,566.516418 589.844055,558.829163 585.265198,551.285706 
	C583.927002,549.081055 583.549072,547.157349 584.933044,544.811890 
	C604.140320,512.262573 623.299011,479.684601 642.488892,447.125000 
	C642.632202,446.881683 643.042908,446.795868 644.175659,446.164368 
	C647.434875,451.587555 650.726074,457.063965 654.200928,462.854553 
z"/>
<path fill="#ffffff" opacity="1.000000" stroke="none" 
	d="
M361.126221,669.054565 
	C372.969116,660.341431 384.908142,659.637512 397.467957,667.340576 
	C399.203827,665.810547 400.377167,663.604614 403.097168,663.081726 
	C412.225250,661.327026 415.287933,663.777954 415.264618,673.137634 
	C415.228119,687.787048 415.284271,702.436829 415.219299,717.085999 
	C415.203644,720.618713 416.171844,724.783447 411.140961,726.057007 
	C405.144745,727.574951 400.499359,725.925781 397.957916,721.479492 
	C383.119080,730.461060 366.519470,728.389954 357.187012,716.392639 
	C345.989990,701.998352 347.496002,682.650574 361.126221,669.054565 
M396.525177,702.845459 
	C397.134918,700.950867 397.929718,699.093872 398.323425,697.155396 
	C400.412598,686.868835 391.089508,676.317078 381.161438,677.642944 
	C373.358032,678.685059 368.055817,684.048523 367.265533,691.699280 
	C366.320312,700.849487 369.939514,707.954285 376.904205,710.620667 
	C384.184052,713.407654 391.248535,710.799316 396.525177,702.845459 
z"/>
<path fill="#ffffff" opacity="1.000000" stroke="none" 
	d="
M729.880127,683.002686 
	C729.882385,678.506775 729.859375,674.509949 729.894470,670.513611 
	C729.926880,666.824280 730.254517,663.333618 735.200806,663.112488 
	C739.661499,662.913086 742.794312,664.224792 742.405334,669.636230 
	C757.279846,659.189819 769.870422,660.007629 780.228638,671.871460 
	C781.838928,672.075439 782.438171,670.631531 783.349060,669.786865 
	C791.472839,662.252991 803.239197,660.058228 813.031494,664.483887 
	C823.240723,669.097961 826.223022,677.919312 826.322815,688.204285 
	C826.426208,698.860901 826.275208,709.520142 826.386963,720.176636 
	C826.427124,724.010803 825.152100,726.138916 821.014404,726.268616 
	C816.788574,726.401001 814.164856,724.908020 814.187683,720.391663 
	C814.225464,712.908630 814.333801,705.424622 814.533508,697.944336 
	C814.645020,693.765259 814.439880,689.629883 813.752319,685.508179 
	C812.660828,678.964783 808.403137,674.545044 802.103577,673.478821 
	C795.968994,672.440552 789.447144,675.653503 786.648926,681.260010 
	C785.072754,684.417908 784.306885,687.806519 784.322266,691.380737 
	C784.361755,700.539490 784.345764,709.698669 784.314209,718.857544 
	C784.293518,724.867310 783.133423,726.239258 778.245728,726.230286 
	C773.494385,726.221558 772.168518,724.685608 772.094116,718.689331 
	C771.961914,708.034119 772.014343,697.375916 771.806091,686.722534 
	C771.699951,681.292847 769.129883,677.130371 764.146118,674.784180 
	C758.871521,672.301025 753.664368,672.880005 749.025024,676.263428 
	C744.047302,679.893494 742.460754,685.342773 742.374146,691.201660 
	C742.236206,700.525146 742.216309,709.854004 742.374023,719.176758 
	C742.447571,723.526611 741.354492,726.305176 736.350830,726.238464 
	C731.425232,726.172729 729.969666,724.755493 729.934082,718.972046 
	C729.861206,707.149048 729.892029,695.325378 729.880127,683.002686 
z"/>
<path fill="#ffffff" opacity="1.000000" stroke="none" 
	d="
M205.315857,704.999146 
	C205.308792,710.491455 205.244965,715.484680 205.310165,720.476257 
	C205.358917,724.209412 203.520477,726.100708 199.902054,726.135376 
	C195.369308,726.178833 190.234238,727.520691 188.381729,721.276978 
	C172.932602,730.372620 158.023697,728.731201 148.082947,717.028931 
	C137.381592,704.431274 137.499527,684.748352 148.334213,671.974426 
	C155.764236,663.214600 172.933014,657.089844 187.679276,667.703369 
	C191.035645,663.246216 196.061905,661.735168 201.536728,663.354065 
	C204.772537,664.310852 205.322311,666.687866 205.318146,669.551270 
	C205.301224,681.200623 205.313202,692.850037 205.315857,704.999146 
M163.191025,708.381653 
	C170.531219,713.235168 178.365845,712.670044 183.993958,706.881042 
	C189.398529,701.321960 190.252075,691.249023 185.870590,684.734741 
	C181.513458,678.256714 173.813446,675.906372 166.634979,678.863281 
	C156.018967,683.236206 153.960648,698.218018 163.191025,708.381653 
z"/>
<path fill="#ffffff" opacity="1.000000" stroke="none" 
	d="
M226.637665,667.520508 
	C238.169968,660.123230 249.454697,660.427002 261.022247,667.382324 
	C262.617462,664.951477 264.520020,663.184753 267.699310,662.948120 
	C276.758850,662.273865 278.572601,663.970398 278.489258,672.973633 
	C278.355133,687.456726 278.502686,701.942688 278.337952,716.425171 
	C278.299377,719.815491 279.930176,724.108459 275.055664,725.872314 
	C269.857849,727.753113 264.248322,725.902344 261.193756,721.428284 
	C248.659042,730.777405 229.841003,729.801758 219.050400,714.207520 
	C208.672302,699.209473 212.068344,678.782776 226.637665,667.520508 
M241.730057,678.147888 
	C232.567520,681.404907 228.135849,690.257080 230.912903,699.755005 
	C233.373581,708.170959 241.397369,713.205750 249.262924,711.269287 
	C258.550781,708.982666 263.709320,699.933350 261.460083,689.872498 
	C259.549042,681.324585 251.709930,676.391663 241.730057,678.147888 
z"/>
<path fill="#ffffff" opacity="1.000000" stroke="none" 
	d="
M584.582458,404.581268 
	C593.739380,401.360321 597.337158,393.540558 601.570251,386.254272 
	C607.424438,376.177856 613.359802,366.148010 619.338440,356.144897 
	C620.996521,353.370544 621.993225,350.656586 621.844543,347.252563 
	C621.510620,339.607117 626.813232,333.490479 634.356567,332.125427 
	C640.995850,330.924011 647.946289,335.133118 650.533997,341.922424 
	C653.114441,348.692810 650.668335,356.914612 643.924561,359.847839 
	C638.488342,362.212372 635.761597,366.225739 633.105957,370.882172 
	C626.260925,382.884552 619.296814,394.819031 612.367188,406.773071 
	C611.014160,409.107117 610.152405,411.465302 610.187561,414.296844 
	C610.282166,421.910156 606.213745,427.967010 600.101990,429.869446 
	C593.714355,431.857788 586.143005,429.452850 582.672241,424.333191 
	C579.011169,418.932739 579.692444,410.784821 584.582458,404.581268 
z"/>
<path fill="#ffffff" opacity="1.000000" stroke="none" 
	d="
M337.385071,697.296021 
	C334.158417,705.191895 330.853271,712.650818 328.059814,720.296570 
	C326.196625,725.396240 322.583160,726.293152 317.860687,726.240601 
	C312.897064,726.185425 308.413635,726.363281 306.080597,720.405090 
	C299.594604,703.841003 292.670410,687.448975 285.978088,670.965088 
	C283.494263,664.847168 284.654694,663.149597 291.200378,662.930542 
	C299.692383,662.646362 301.250183,663.672546 304.204498,671.425903 
	C307.874451,681.057434 311.556183,690.684387 315.241608,700.309998 
	C315.698792,701.504089 315.876862,702.876160 317.641876,703.909851 
	C321.866180,692.977173 326.060120,682.186890 330.203796,671.377380 
	C333.123199,663.761719 335.451965,662.275330 343.716553,662.938721 
	C348.886810,663.353699 350.243073,665.275208 348.351379,670.116028 
	C344.842194,679.095886 341.143829,688.001831 337.385071,697.296021 
z"/>
<path fill="#ffffff" opacity="1.000000" stroke="none" 
	d="
M656.216309,704.334717 
	C650.706726,684.838928 663.212341,666.947083 679.445923,663.353821 
	C696.839050,659.503723 714.193359,668.350586 719.177002,684.336426 
	C724.391113,701.061401 716.043213,719.226074 700.408936,725.175232 
	C683.408020,731.644348 665.221924,724.312805 657.690308,707.943604 
	C657.204468,706.887695 656.801453,705.793640 656.216309,704.334717 
M678.025879,713.652832 
	C679.087769,714.124023 680.119812,714.684021 681.216309,715.052429 
	C689.843872,717.951233 699.508789,714.718384 704.593140,707.269714 
	C709.871460,699.536865 709.448120,688.249207 703.615967,681.214966 
	C697.514099,673.855469 688.070801,671.361511 679.858093,674.940613 
	C664.300842,681.720459 662.959412,702.483398 678.025879,713.652832 
z"/>
<path fill="#ffffff" opacity="1.000000" stroke="none" 
	d="
M503.324646,686.995483 
	C503.640839,693.282349 502.541992,699.141785 504.319977,704.858459 
	C506.894440,713.136047 513.478455,716.953979 523.132751,715.685242 
	C530.135071,714.765137 535.465088,708.832764 535.645508,701.063660 
	C535.885193,690.744141 535.832031,680.414062 535.695557,670.091248 
	C535.636780,665.646606 537.111877,663.041748 541.896484,663.039185 
	C546.918762,663.036499 548.245789,664.448608 548.268311,670.232910 
	C548.304688,679.558533 548.345642,688.885010 548.262451,698.210083 
	C548.080078,718.646057 533.239563,730.694336 512.968384,726.936157 
	C499.357788,724.412903 491.380493,714.491882 490.951904,698.990417 
	C490.685089,689.339294 490.961548,679.674133 490.907043,670.015747 
	C490.882568,665.674011 492.372589,662.960205 497.214142,663.020874 
	C501.933899,663.080139 503.596283,665.454773 503.389343,670.012451 
	C503.140228,675.496887 503.326569,681.001099 503.324646,686.995483 
z"/>
<path fill="#ffffff" opacity="1.000000" stroke="none" 
	d="
M840.000000,671.215698 
	C847.943787,659.517639 871.310974,660.947266 881.031738,668.232178 
	C883.742859,670.263916 883.553528,672.643311 881.875183,675.219177 
	C880.194763,677.798340 878.132507,678.908325 875.159302,677.214172 
	C870.141785,674.355042 864.818787,672.646118 858.954102,673.212585 
	C857.638977,673.339600 856.291077,673.453308 855.038147,673.835144 
	C851.939819,674.779358 849.615784,676.691345 849.504639,680.121277 
	C849.398132,683.408447 851.709106,685.342651 854.491211,686.285950 
	C860.312256,688.259583 866.294739,689.758789 872.109192,691.750000 
	C878.422241,693.911865 883.962952,696.952332 885.511780,704.419128 
	C887.288635,712.985535 883.902466,720.736938 875.885742,724.166687 
	C862.941223,729.704651 850.563477,727.932129 838.848755,720.415588 
	C835.497803,718.265625 834.353149,715.666077 836.879456,712.093140 
	C839.258301,708.728455 841.924866,708.919922 845.005920,711.079407 
	C850.465576,714.906006 856.457275,717.054443 863.244324,716.700439 
	C865.289124,716.593811 867.196350,716.097351 869.021851,715.298401 
	C871.624268,714.159424 873.444641,712.272156 873.593079,709.285156 
	C873.742920,706.269470 871.991150,704.297668 869.553528,702.896851 
	C866.336426,701.048279 862.650574,700.537964 859.171448,699.436340 
	C855.530334,698.283508 851.778503,697.395325 848.268921,695.927917 
	C837.303833,691.343384 834.207642,682.206299 840.000000,671.215698 
z"/>
<path fill="#ffffff" opacity="1.000000" stroke="none" 
	d="
M602.617615,668.163452 
	C605.953979,671.235413 604.257690,673.813477 602.353271,676.270142 
	C600.344604,678.861267 597.989868,677.973694 595.670105,676.686462 
	C590.575317,673.859436 585.143066,672.565186 579.331421,673.314697 
	C575.550293,673.802429 571.913269,674.845642 571.337952,679.390564 
	C570.781738,683.783936 573.948975,685.601990 577.413635,686.751343 
	C582.935303,688.582947 588.578491,690.050354 594.090515,691.908325 
	C603.524414,695.088318 607.626770,700.661560 607.314697,709.472839 
	C607.035156,717.362793 601.729675,723.572632 593.016602,725.950256 
	C581.609924,729.062988 570.925232,727.074341 560.932617,720.992554 
	C557.709351,719.030762 555.176880,716.637878 557.997742,712.519775 
	C560.555786,708.785400 563.369324,709.012878 566.880188,711.502747 
	C572.321472,715.361633 578.492737,717.246765 585.247437,716.638977 
	C588.628357,716.334717 591.933044,715.556274 593.953613,712.513855 
	C596.299072,708.982239 594.842712,704.480164 590.384521,702.749512 
	C585.288513,700.771362 579.915833,699.515259 574.694458,697.848267 
	C568.239624,695.787476 562.108887,693.328857 559.667480,686.048828 
	C555.950500,674.965332 563.757141,664.150635 576.852295,662.805237 
	C585.803711,661.885559 594.461121,663.135498 602.617615,668.163452 
z"/>
<path fill="#ffffff" opacity="1.000000" stroke="none" 
	d="
M472.702515,708.739502 
	C476.998962,705.916809 479.739899,708.766724 481.881561,711.283447 
	C484.210724,714.020569 481.501190,716.173767 479.695160,718.050293 
	C470.470337,727.635315 454.887573,730.204712 442.261749,724.289978 
	C430.100128,718.592651 422.209076,704.591370 423.842957,691.609009 
	C425.732666,676.593933 435.067688,665.660767 449.220917,663.176514 
	C460.280579,661.235229 470.880554,662.788574 479.295593,671.290039 
	C481.365173,673.380920 483.781616,675.668030 480.433411,678.850952 
	C476.639587,682.457397 474.448303,682.660095 470.724182,679.353455 
	C460.751343,670.498596 447.795898,671.554016 440.186646,681.841125 
	C432.848846,691.761292 435.630157,706.188782 446.188171,712.972351 
	C454.499237,718.312378 464.679596,716.769409 472.702515,708.739502 
z"/>
<path fill="#ffffff" opacity="1.000000" stroke="none" 
	d="
M650.979248,666.363220 
	C651.450439,673.651245 650.845337,674.301147 644.105408,674.328308 
	C632.336914,674.375671 632.334106,674.375671 632.334229,686.228760 
	C632.334290,692.383362 632.289490,698.538696 632.366272,704.692383 
	C632.480896,713.876404 636.404175,717.268799 645.258179,715.419739 
	C648.719299,714.696838 651.181702,714.710388 652.086365,718.691589 
	C652.932617,722.415344 651.492432,724.728394 647.876465,725.943481 
	C636.177979,729.874695 619.854553,725.489502 620.515686,707.211609 
	C620.852112,697.911682 620.442444,688.586243 620.463440,679.272583 
	C620.470947,675.931213 619.627136,673.865417 615.652466,674.241943 
	C612.000427,674.587891 610.696350,672.369080 610.704163,668.960632 
	C610.711975,665.541870 612.070740,663.497437 615.696350,663.635803 
	C619.500183,663.781067 620.635986,661.636597 620.572327,658.307495 
	C620.534180,656.312073 620.653503,654.304932 620.478577,652.322693 
	C620.083374,647.846680 621.502808,645.545166 626.528809,645.516907 
	C631.352722,645.489807 632.362671,647.674255 632.413879,651.926331 
	C632.554993,663.648926 629.653137,663.674011 644.242310,663.632019 
	C646.670105,663.625061 649.370789,663.079956 650.979248,666.363220 
z"/>
</svg>